Coordinates
version=1
nRows=4
nColumns=114
inDegrees=yes

Units are S.I. units (second, meters, Newtons, ...)
If the header above contains a line with 'inDegrees', this indicates whether rotational values are in degrees (yes) or radians (no).

endheader 
time	pelvis_tilt	pelvis_list	pelvis_rotation	pelvis_tx	pelvis_ty	pelvis_tz	hip_flexion_l	hip_adduction_l	hip_rotation_l	hip_flexion_r	hip_adduction_r	hip_rotation_r	knee_angle_l	knee_angle_r	ankle_angle_l	ankle_angle_r	subtalar_angle_l	subtalar_angle_r	mtp_angle_l	mtp_angle_r	lumbar_extension	lumbar_bending	lumbar_rotation	arm_flex_l	arm_add_l	arm_rot_l	arm_flex_r	arm_add_r	arm_rot_r	elbow_flex_l	elbow_flex_r	pro_sup_l	pro_sup_r	addbrev_l/activation	addlong_l/activation	addmagDist_l/activation	addmagIsch_l/activation	addmagMid_l/activation	addmagProx_l/activation	bflh_l/activation	bfsh_l/activation	edl_l/activation	ehl_l/activation	fdl_l/activation	fhl_l/activation	gaslat_l/activation	gasmed_l/activation	glmax1_l/activation	glmax2_l/activation	glmax3_l/activation	glmed1_l/activation	glmed2_l/activation	glmed3_l/activation	glmin1_l/activation	glmin2_l/activation	glmin3_l/activation	grac_l/activation	iliacus_l/activation	perbrev_l/activation	perlong_l/activation	piri_l/activation	psoas_l/activation	recfem_l/activation	sart_l/activation	semimem_l/activation	semiten_l/activation	soleus_l/activation	tfl_l/activation	tibant_l/activation	tibpost_l/activation	vasint_l/activation	vaslat_l/activation	vasmed_l/activation	addbrev_r/activation	addlong_r/activation	addmagDist_r/activation	addmagIsch_r/activation	addmagMid_r/activation	addmagProx_r/activation	bflh_r/activation	bfsh_r/activation	edl_r/activation	ehl_r/activation	fdl_r/activation	fhl_r/activation	gaslat_r/activation	gasmed_r/activation	glmax1_r/activation	glmax2_r/activation	glmax3_r/activation	glmed1_r/activation	glmed2_r/activation	glmed3_r/activation	glmin1_r/activation	glmin2_r/activation	glmin3_r/activation	grac_r/activation	iliacus_r/activation	perbrev_r/activation	perlong_r/activation	piri_r/activation	psoas_r/activation	recfem_r/activation	sart_r/activation	semimem_r/activation	semiten_r/activation	soleus_r/activation	tfl_r/activation	tibant_r/activation	tibpost_r/activation	vasint_r/activation	vaslat_r/activation	vasmed_r/activation	
          4.08000000	          2.79583876	         -2.38846374	          7.42431394	          1.67886837	          0.85081117	         -0.04306614	         19.89779674	        -11.00393816	         -4.55068404	         19.71739942	         -3.61825508	         -1.49264179	         60.58124034	         54.25402205	         11.49124602	         28.63746833	        -33.49867409	        -14.22420084	        -32.49967146	        -14.67518091	         -9.64556213	          0.16724221	          3.34986563	         -2.51038956	        -26.36801723	         -0.19692681	          9.65470292	        -22.23356874	          8.72365703	         98.85430844	         90.95710066	         87.46794907	         96.86138724	          0.14775750	          0.12977201	          0.15206023	          0.14838314	          0.15470828	          0.16514747	          0.14512899	          0.15174405	          0.15818675	          0.16382725	          0.19274788	          0.19362936	          0.15547707	          0.14153430	          0.18428792	          0.20574828	          0.19003337	          0.14346046	          0.17208968	          0.18740405	          0.15351911	          0.16176482	          0.16970227	          0.15229815	          0.14640109	          0.15262701	          0.16279125	          0.19461144	          0.15772953	          0.39750023	          0.15999332	          0.12185287	          0.13971621	          0.35227413	          0.17678961	          0.19152989	          0.29543149	          0.24106650	          0.43747255	          0.27695596	          0.19294630	          0.22963349	          0.14744132	          0.14180567	          0.16408918	          0.17236456	          0.10021184	          0.15699400	          0.15585597	          0.15897682	          0.17657435	          0.19283598	          0.14790686	          0.11808509	          0.13272760	          0.11067189	          0.11994388	          0.18663377	          0.16124339	          0.14518996	          0.17698028	          0.16962789	          0.16250936	          0.15720589	          0.23490578	          0.18061942	          0.14304496	          0.14464962	          0.21327954	          0.37816021	          0.17081928	          0.10442050	          0.12900830	          0.20807107	          0.21545092	          0.22699618	          0.23667126	          0.18854830	          0.26010880	          0.20008446	
          4.10000000	          3.34803491	         -2.20444818	          7.59192848	          1.67939343	          0.85531866	         -0.04386472	         18.77296661	        -10.81391529	         -4.77555661	         18.72042724	         -3.67713351	         -1.21181445	         59.59951851	         53.61788290	         11.49655181	         28.79948713	        -33.59102875	        -14.19156490	        -31.35266199	        -13.44441170	         -9.95614346	          0.06224253	          3.37126981	         -3.32970844	        -22.34402671	          1.20172635	          6.09532906	        -18.26869377	          7.99918796	         87.22206479	         81.32387861	         86.43669097	         96.13502357	          0.12725516	          0.10476794	          0.13677682	          0.14059126	          0.13399167	          0.14084391	          0.12666000	          0.15280659	          0.15769264	          0.16371160	          0.19443348	          0.19590549	          0.14191427	          0.12223747	          0.18939707	          0.20049824	          0.15277897	          0.15895713	          0.20450568	          0.20916415	          0.17449188	          0.18200303	          0.18208510	          0.13878847	          0.15340204	          0.16251385	          0.15052204	          0.16318623	          0.14559983	          0.45005610	          0.16088198	          0.10728202	          0.13405658	          0.29876310	          0.18882529	          0.17122701	          0.31329786	          0.21463921	          0.34964846	          0.23869274	          0.16352686	          0.18242024	          0.13640774	          0.14809249	          0.14289575	          0.14226760	          0.08569538	          0.15463765	          0.15547718	          0.16197064	          0.16819968	          0.17501529	          0.14369831	          0.14796730	          0.12382770	          0.09938731	          0.09387551	          0.48442286	          0.21908027	          0.14562606	          0.25504625	          0.20602248	          0.16971915	          0.13834121	          0.26584455	          0.16162475	          0.17929042	          0.11463990	          0.18574159	          0.34604005	          0.16244456	          0.09921035	          0.12330547	          0.28468300	          0.22986884	          0.19435972	          0.19256999	          0.19962101	          0.30964247	          0.21664628	
          4.12000000	          3.56601421	         -2.00705689	          7.71116044	          1.68007684	          0.86181302	         -0.04426274	         17.45043904	        -10.66722741	         -5.36264794	         17.58138720	         -3.73357818	         -0.97884973	         57.61892082	         51.86475342	         11.91255803	         28.17633708	        -32.98388332	        -14.30093829	        -29.47571198	        -12.62615240	         -9.88154190	         -0.10885025	          3.23237856	         -3.51469960	        -19.10208591	          1.99185088	          3.62423995	        -15.06137996	          7.15771757	         75.82732606	         71.72376565	         85.12567804	         95.16648512	          0.12927643	          0.10591991	          0.12971587	          0.12217788	          0.13347116	          0.16347239	          0.12306719	          0.15179122	          0.15221091	          0.16616005	          0.19830964	          0.21254603	          0.15625905	          0.14729567	          0.18099417	          0.18378234	          0.16155431	          0.11257816	          0.15899795	          0.20118219	          0.13876871	          0.16356359	          0.17637531	          0.14396142	          0.15075840	          0.14404126	          0.11817447	          0.21455665	          0.17134107	          0.49129771	          0.17800705	          0.08256598	          0.11943856	          0.34817405	          0.17094167	          0.23665544	          0.34279626	          0.21135479	          0.35178121	          0.23623969	          0.14999353	          0.15837745	          0.13567953	          0.15776843	          0.13598295	          0.13029934	          0.08138794	          0.15130200	          0.15164430	          0.15326304	          0.16687035	          0.17678354	          0.17659516	          0.21187110	          0.12295338	          0.09982262	          0.08306564	          0.57424155	          0.24077004	          0.14381862	          0.29432585	          0.21723234	          0.16865857	          0.13091997	          0.25225583	          0.17234696	          0.17260433	          0.10142661	          0.16923786	          0.30039908	          0.15637060	          0.10425978	          0.12246157	          0.39279374	          0.22522911	          0.15279479	          0.19188270	          0.21673155	          0.37579923	          0.24643839	
          4.14000000	          3.34672786	         -1.83145342	          7.79715400	          1.68065312	          0.86953812	         -0.04455844	         16.25924104	        -10.56456593	         -6.21659298	         16.58187110	         -3.80204875	         -0.79945186	         54.86571887	         49.26052228	         11.97049243	         26.51804868	        -31.70421507	        -14.53291074	        -28.11290180	        -12.54707594	         -9.32256447	         -0.29528405	          2.91242012	         -3.41333009	        -16.66833069	          2.25835229	          2.05671940	        -12.75737140	          6.25565017	         65.67910501	         62.88063663	         83.67476640	         94.04934427	          0.16958177	          0.18103576	          0.13630117	          0.10941691	          0.16186759	          0.21509640	          0.13158881	          0.14891831	          0.14621353	          0.16535985	          0.19787330	          0.22353876	          0.18962049	          0.18879855	          0.16538760	          0.16122992	          0.19942856	          0.07869036	          0.11943042	          0.17902216	          0.10515207	          0.13622758	          0.16385237	          0.16886680	          0.14932955	          0.12046464	          0.08841603	          0.32202671	          0.22458384	          0.49832498	          0.18527284	          0.06416611	          0.10867215	          0.35007264	          0.15112381	          0.27961958	          0.33913827	          0.21966530	          0.34505773	          0.24761369	          0.14924158	          0.15344234	          0.14666344	          0.18343533	          0.14115238	          0.12999852	          0.09106301	          0.14701875	          0.14347471	          0.14842946	          0.16785193	          0.18389364	          0.21292175	          0.24620703	          0.12518908	          0.10743319	          0.08993066	          0.51452155	          0.23157250	          0.13921548	          0.27882053	          0.20752456	          0.16297294	          0.13022837	          0.22686152	          0.15375594	          0.14116356	          0.09656290	          0.15476206	          0.25864368	          0.14768332	          0.11540439	          0.12871966	          0.34555639	          0.20260735	          0.13548082	          0.19977123	          0.22909507	          0.35254692	          0.26092739	
